# xmcd
#
# Track frame offsets:
#	182
#	11230
#	24717
#	31862
#	47207
#	61370
#	75932
#	92325
#	96875
#	112260
#	119977
#	136750
#	155542
#	171867
#
# Disc length: 2421 seconds
# Revision: 0
# Processed by: cddbd v1.5.2PL0 Copyright (c) Steve Scherf et al.
# Submitted via: dBpowerAMP V12.0
#
DISCID=b609730e
DTITLE=Various Artist - Le Mystère Des Voix Bulgares  (A Cathedral Concert)
DYEAR=1988
DGENRE=Country
TTITLE0=Janka Rupkina - Oh, Mara
TTITLE1=Choir of the Bulgarian Radio and TV - Mrs. Nedelja Became Famous
TTITLE2=Choir of the Bulgarian Radio and TV - A Young Girl Is Coming
TTITLE3=Choir of the Bulgarian Radio and TV - Todora's Dream
TTITLE4=Anasstasia Kostova - Pigeons Coo
TTITLE5=Choir of the Bulgarian Radio and TV - Young Vena
TTITLE6=Nadejda Hvojneva - Small Green Wood
TTITLE7=Kremena Stantcsheva - The Wind Blows In The Forest (feat. Vassilka Andonova)
TTITLE8=Choir of the Bulgarian Radio and TV - The Childless Bride (feat. Radka Alexova)
TTITLE9=Choir of the Bulgarian Radio and TV - Homeland
TTITLE10=Olga Borissova - Lovely Jana (feat. the group Atanas Valtshev)
TTITLE11=Choir of the Bulgarian Radio and TV - Come Into Leaf, Thou Forest
TTITLE12=Zornitza - The Dahlia Blossoms And Doesn't Fade (feat. the group Atanas Valtshev)
TTITLE13=Choir of the Bulgarian Radio and TV - Guro Is Looking For A Bride (feat. Janka Rupkina)
EXTD=
EXTT0=
EXTT1=
EXTT2=
EXTT3=
EXTT4=
EXTT5=
EXTT6=
EXTT7=
EXTT8=
EXTT9=
EXTT10=
EXTT11=
EXTT12=
EXTT13=
PLAYORDER=
